<?xml version="1.0" encoding="UTF-8" standalone="no"?>
<!-- Created with Inkscape (http://www.inkscape.org/) -->

<svg
   width="125.71906mm"
   height="24.58194mm"
   viewBox="0 0 125.71906 24.58194"
   version="1.1"
   id="svg1"
   inkscape:version="1.4 (e7c3feb100, 2024-10-09)"
   sodipodi:docname="button.svg"
   xmlns:inkscape="http://www.inkscape.org/namespaces/inkscape"
   xmlns:sodipodi="http://sodipodi.sourceforge.net/DTD/sodipodi-0.dtd"
   xmlns="http://www.w3.org/2000/svg"
   xmlns:svg="http://www.w3.org/2000/svg">
  <sodipodi:namedview
     id="namedview1"
     pagecolor="#505050"
     bordercolor="#eeeeee"
     borderopacity="1"
     inkscape:showpageshadow="0"
     inkscape:pageopacity="0"
     inkscape:pagecheckerboard="0"
     inkscape:deskcolor="#505050"
     inkscape:document-units="mm"
     inkscape:zoom="0.75343254"
     inkscape:cx="203.0706"
     inkscape:cy="215.67956"
     inkscape:window-width="1920"
     inkscape:window-height="1080"
     inkscape:window-x="0"
     inkscape:window-y="0"
     inkscape:window-maximized="0"
     inkscape:current-layer="layer1" />
  <defs
     id="defs1" />
  <g
     inkscape:label="Layer 1"
     inkscape:groupmode="layer"
     id="layer1"
     transform="translate(-51.270901,-91.304352)">
    <rect
       style="fill:#ffffff;fill-opacity:1;fill-rule:evenodd;stroke-width:2.46"
       id="rect1"
       width="125.71906"
       height="24.58194"
       x="51.270901"
       y="91.304352" />
    <path
       style="fill:#ffffff;fill-opacity:1;fill-rule:evenodd;stroke-width:2.46;stroke:#000000;stroke-opacity:1"
       id="path2"
       d="m 101.21236,102.96606 c 4.95759,-2.71755 10.36492,-4.521214 15.85725,-5.803713 1.34062,-0.313045 2.69744,-0.552104 4.04617,-0.828156 3.15975,-0.470351 3.79373,-0.651101 6.86376,-0.799176 2.18567,-0.105419 4.50713,-0.09505 6.5903,0.692827 0.46161,0.174583 0.87499,0.456763 1.31248,0.685144 -0.74717,-0.363662 -1.41445,-1.010483 -2.24152,-1.090988 -0.40941,-0.03985 0.55322,0.611908 0.78821,0.949527 0.94333,1.355308 1.41319,2.989243 1.90995,4.541625 0.54694,1.89913 1.29467,3.7333 2.22545,5.47529 1.66817,2.78142 1.96745,2.41508 5.51257,4.41372 0.79909,0.24042 1.63576,0.2487 2.46253,0.25072 1.01594,0.0552 1.97236,-0.072 2.92498,-0.42613 1.92669,-0.78617 3.2699,-2.44323 4.54849,-4.01381 1.40302,-1.68844 2.61624,-3.51962 3.94788,-5.26243 0.15434,-0.19277 0.30869,-0.38553 0.46303,-0.5783 0,0 -3.34212,-1.993089 -3.34212,-1.993089 v 0 c -0.15179,0.19767 -0.30358,0.39534 -0.45537,0.59301 -1.29165,1.761969 -2.47623,3.602479 -3.87683,5.283019 -1.27101,1.51126 -2.60284,3.09117 -4.51848,3.7791 -0.94581,0.28354 -1.89631,0.34274 -2.8811,0.29585 -0.79871,-0.016 -1.60706,-0.053 -2.35416,-0.3679 0.97683,0.58672 1.95366,1.17345 2.9305,1.76017 -0.11888,-0.0797 -0.24862,-0.1451 -0.35662,-0.23898 -0.60665,-0.52736 -0.9892,-1.27153 -1.45731,-1.90941 -0.99576,-1.70395 -1.74867,-3.54328 -2.31675,-5.43201 -0.50547,-1.58843 -0.96671,-3.239229 -1.85919,-4.666452 -0.22666,-0.362471 -0.41389,-0.780294 -0.75708,-1.035214 -1.3471,-1.000632 -2.83742,-1.792421 -4.25613,-2.688631 -0.44229,-0.198737 -0.86551,-0.447001 -1.32687,-0.59621 -4.04936,-1.30961 -9.20902,-0.159111 -13.27024,0.438702 -1.34139,0.287761 -2.68956,0.545541 -4.02417,0.863285 -5.62086,1.338227 -11.10498,3.165829 -16.36198,5.56968 z" />
  </g>
</svg>
